<svg version="1.1" id="Ebene_1" xmlns="http://www.w3.org/2000/svg" x="0px" y="0px" viewBox="0 0 16 16" >

<g>
	<path d="M1.9,6C1.8,6,1.7,6,1.6,6L0.7,5.7c-0.4-0.1-0.6-0.6-0.4-1c0.1-0.4,0.6-0.6,1-0.4l0.9,0.3c0.4,0.1,0.6,0.6,0.4,1 C2.5,5.9,2.2,6,1.9,6z"/>
</g>
<g>
	<path d="M5.4,2.4c-0.3,0-0.6-0.2-0.7-0.5L4.4,1c-0.2-0.4,0-0.8,0.4-1c0.4-0.2,0.8,0,1,0.4l0.4,0.9c0.2,0.4,0,0.8-0.4,1
		C5.6,2.3,5.5,2.4,5.4,2.4z"/>
</g>
<g>
	<path d="M10.6,2.4c-0.1,0-0.2,0-0.3-0.1c-0.4-0.2-0.6-0.6-0.4-1l0.4-0.9c0.2-0.4,0.6-0.6,1-0.4c0.4,0.2,0.6,0.6,0.4,1l-0.4,0.9
		C11.1,2.2,10.8,2.4,10.6,2.4z"/>
</g>
<g>
	<path d="M14.1,6c-0.3,0-0.6-0.2-0.7-0.5c-0.1-0.4,0-0.8,0.4-1l0.9-0.3c0.4-0.1,0.8,0,1,0.4s0,0.8-0.4,1L14.4,6
		C14.3,6,14.2,6,14.1,6z"/>
</g>
<path d="M8,3.1c-2.5,0-4.6,2-4.6,4.6c0,1,0.3,1.9,0.9,2.7c0.7,0.9,1,2,1,3v0.9c0,0.9,0.8,1.7,1.7,1.7h1.8c0.9,0,1.7-0.8,1.7-1.7
	v-0.9c0-1.1,0.3-2.1,1-2.9c0.6-0.8,1-1.8,1-2.8C12.6,5.1,10.5,3.1,8,3.1z M9.1,14.3c0,0.1-0.1,0.2-0.2,0.2H7.1
	c-0.1,0-0.2-0.1-0.2-0.2v-1.2h2.2V14.3z M10.4,9.5c-0.5,0.6-0.8,1.4-1,2.1H6.6C6.4,10.9,6,10.1,5.5,9.4C5.1,8.9,4.9,8.3,4.9,7.6
	C4.9,6,6.3,4.6,8,4.6s3.1,1.4,3.1,3.1C11.1,8.3,10.8,9,10.4,9.5z"/>
</svg>

